{
  "accessors": [
    {
      "bufferView": 2,
      "componentType": 5126,
      "count": 12,
      "max": [
        1.0,
        1.2081799507141113,
        0.7575500011444092
      ],
      "min": [
        -1.0,
        -1.2081799507141113,
        -0.015350000001490116
      ],
      "type": "VEC3"
    },
    {
      "bufferView": 2,
      "byteOffset": 144,
      "componentType": 5126,
      "count": 12,
      "max": [
        0.0,
        1.0,
        -0.0
      ],
      "min": [
        0.0,
        -1.0,
        -0.0
      ],
      "type": "VEC3"
    },
    {
      "bufferView": 1,
      "componentType": 5126,
      "count": 12,
      "max": [
        0.7008500099182129,
        0.7669000029563904
      ],
      "min": [
        0.3695099949836731,
        0.3834500014781952
      ],
      "type": "VEC2"
    },
    {
      "bufferView": 0,
      "componentType": 5125,
      "count": 24,
      "type": "SCALAR"
    },
    {
      "bufferView": 2,
      "byteOffset": 288,
      "componentType": 5126,
      "count": 752,
      "max": [
        1.0247700214385986,
        1.2834899425506592,
        0.8435900211334229
      ],
      "min": [
        -1.0247700214385986,
        -1.2834899425506592,
        -0.018360000103712082
      ],
      "type": "VEC3"
    },
    {
      "bufferView": 2,
      "byteOffset": 9312,
      "componentType": 5126,
      "count": 752,
      "max": [
        1.0,
        1.0,
        0.9610617756843567
      ],
      "min": [
        -1.0,
        -1.0,
        -0.9065150022506714
      ],
      "type": "VEC3"
    },
    {
      "bufferView": 1,
      "byteOffset": 96,
      "componentType": 5126,
      "count": 752,
      "max": [
        1.0,
        1.0
      ],
      "min": [
        0.0,
        0.0
      ],
      "type": "VEC2"
    },
    {
      "bufferView": 0,
      "byteOffset": 96,
      "componentType": 5125,
      "count": 2178,
      "type": "SCALAR"
    },
    {
      "bufferView": 2,
      "byteOffset": 18336,
      "componentType": 5126,
      "count": 153,
      "max": [
        0.3956100046634674,
        1.2249599695205688,
        0.5190799832344055
      ],
      "min": [
        0.3244200050830841,
        1.1537699699401855,
        -0.03787999972701073
      ],
      "type": "VEC3"
    },
    {
      "bufferView": 2,
      "byteOffset": 20172,
      "componentType": 5126,
      "count": 153,
      "max": [
        1.0,
        1.0,
        1.0
      ],
      "min": [
        -1.0,
        -1.0,
        -1.0
      ],
      "type": "VEC3"
    },
    {
      "bufferView": 1,
      "byteOffset": 6112,
      "componentType": 5126,
      "count": 153,
      "max": [
        0.9928500056266785,
        0.8832299709320068
      ],
      "min": [
        0.3533700108528137,
        0.2405100017786026
      ],
      "type": "VEC2"
    },
    {
      "bufferView": 0,
      "byteOffset": 8808,
      "componentType": 5125,
      "count": 372,
      "type": "SCALAR"
    },
    {
      "bufferView": 2,
      "byteOffset": 22008,
      "componentType": 5126,
      "count": 153,
      "max": [
        -0.30614998936653137,
        1.2249599695205688,
        0.5190799832344055
      ],
      "min": [
        -0.3773399889469147,
        1.1537699699401855,
        -0.03787999972701073
      ],
      "type": "VEC3"
    },
    {
      "bufferView": 2,
      "byteOffset": 23844,
      "componentType": 5126,
      "count": 153,
      "max": [
        1.0,
        1.0,
        1.0
      ],
      "min": [
        -1.0,
        -1.0,
        -1.0
      ],
      "type": "VEC3"
    },
    {
      "bufferView": 1,
      "byteOffset": 7336,
      "componentType": 5126,
      "count": 153,
      "max": [
        0.9928500056266785,
        0.8832299709320068
      ],
      "min": [
        0.0,
        0.2405100017786026
      ],
      "type": "VEC2"
    },
    {
      "bufferView": 0,
      "byteOffset": 10296,
      "componentType": 5125,
      "count": 372,
      "type": "SCALAR"
    },
    {
      "bufferView": 2,
      "byteOffset": 25680,
      "componentType": 5126,
      "count": 153,
      "max": [
        0.36063000559806824,
        1.2249599695205688,
        0.5109400153160095
      ],
      "min": [
        -0.3665100038051605,
        1.1537699699401855,
        0.43974998593330383
      ],
      "type": "VEC3"
    },
    {
      "bufferView": 2,
      "byteOffset": 27516,
      "componentType": 5126,
      "count": 153,
      "max": [
        1.0,
        1.0,
        1.0
      ],
      "min": [
        -1.0,
        -1.0,
        -1.0
      ],
      "type": "VEC3"
    },
    {
      "bufferView": 1,
      "byteOffset": 8560,
      "componentType": 5126,
      "count": 153,
      "max": [
        0.865119993686676,
        0.5553600192070007
      ],
      "min": [
        0.27752000093460083,
        0.2405100017786026
      ],
      "type": "VEC2"
    },
    {
      "bufferView": 0,
      "byteOffset": 11784,
      "componentType": 5125,
      "count": 372,
      "type": "SCALAR"
    },
    {
      "bufferView": 2,
      "byteOffset": 29352,
      "componentType": 5126,
      "count": 153,
      "max": [
        0.36063000559806824,
        1.2249599695205688,
        0.5109400153160095
      ],
      "min": [
        -0.3665100038051605,
        1.1537699699401855,
        0.43974998593330383
      ],
      "type": "VEC3"
    },
    {
      "bufferView": 2,
      "byteOffset": 31188,
      "componentType": 5126,
      "count": 153,
      "max": [
        1.0,
        1.0,
        1.0
      ],
      "min": [
        -1.0,
        -1.0,
        -1.0
      ],
      "type": "VEC3"
    },
    {
      "bufferView": 1,
      "byteOffset": 9784,
      "componentType": 5126,
      "count": 153,
      "max": [
        0.8803799748420715,
        0.7588300108909607
      ],
      "min": [
        0.26225998997688293,
        0.2405100017786026
      ],
      "type": "VEC2"
    },
    {
      "bufferView": 0,
      "byteOffset": 13272,
      "componentType": 5125,
      "count": 372,
      "type": "SCALAR"
    },
    {
      "bufferView": 2,
      "byteOffset": 33024,
      "componentType": 5126,
      "count": 153,
      "max": [
        0.3956100046634674,
        -1.1605900526046753,
        0.5190799832344055
      ],
      "min": [
        0.3244200050830841,
        -1.2317800521850586,
        -0.03787999972701073
      ],
      "type": "VEC3"
    },
    {
      "bufferView": 2,
      "byteOffset": 34860,
      "componentType": 5126,
      "count": 153,
      "max": [
        1.0,
        1.0,
        1.0
      ],
      "min": [
        -1.0,
        -1.0,
        -1.0
      ],
      "type": "VEC3"
    },
    {
      "bufferView": 1,
      "byteOffset": 11008,
      "componentType": 5126,
      "count": 153,
      "max": [
        0.9928500056266785,
        0.8832299709320068
      ],
      "min": [
        0.8040900230407715,
        0.2405100017786026
      ],
      "type": "VEC2"
    },
    {
      "bufferView": 0,
      "byteOffset": 14760,
      "componentType": 5125,
      "count": 372,
      "type": "SCALAR"
    },
    {
      "bufferView": 2,
      "byteOffset": 36696,
      "componentType": 5126,
      "count": 153,
      "max": [
        -0.30614998936653137,
        -1.1605900526046753,
        0.5190799832344055
      ],
      "min": [
        -0.3773399889469147,
        -1.2317800521850586,
        -0.03787999972701073
      ],
      "type": "VEC3"
    },
    {
      "bufferView": 2,
      "byteOffset": 38532,
      "componentType": 5126,
      "count": 153,
      "max": [
        1.0,
        1.0,
        1.0
      ],
      "min": [
        -1.0,
        -1.0,
        -1.0
      ],
      "type": "VEC3"
    },
    {
      "bufferView": 1,
      "byteOffset": 12232,
      "componentType": 5126,
      "count": 153,
      "max": [
        0.9928500056266785,
        0.8834400177001953
      ],
      "min": [
        0.34762999415397644,
        0.2405100017786026
      ],
      "type": "VEC2"
    },
    {
      "bufferView": 0,
      "byteOffset": 16248,
      "componentType": 5125,
      "count": 372,
      "type": "SCALAR"
    },
    {
      "bufferView": 2,
      "byteOffset": 40368,
      "componentType": 5126,
      "count": 153,
      "max": [
        0.36063000559806824,
        -1.1605900526046753,
        0.5109400153160095
      ],
      "min": [
        -0.3665100038051605,
        -1.2317800521850586,
        0.43974998593330383
      ],
      "type": "VEC3"
    },
    {
      "bufferView": 2,
      "byteOffset": 42204,
      "componentType": 5126,
      "count": 153,
      "max": [
        1.0,
        1.0,
        1.0
      ],
      "min": [
        -1.0,
        -1.0,
        -1.0
      ],
      "type": "VEC3"
    },
    {
      "bufferView": 1,
      "byteOffset": 13456,
      "componentType": 5126,
      "count": 153,
      "max": [
        0.8498700261116028,
        0.6320199966430664
      ],
      "min": [
        0.30979999899864197,
        0.2405100017786026
      ],
      "type": "VEC2"
    },
    {
      "bufferView": 0,
      "byteOffset": 17736,
      "componentType": 5125,
      "count": 372,
      "type": "SCALAR"
    }
  ],
  "asset": {
    "extras": {
      "author": "Niko313 (https://sketchfab.com/Niko313)",
      "license": "CC-BY-4.0 (http://creativecommons.org/licenses/by/4.0/)",
      "source": "https://sketchfab.com/3d-models/roof-655ddb6a60fe4fc9ba7be39772dd1af3",
      "title": "roof"
    },
    "generator": "Sketchfab-12.68.0",
    "version": "2.0"
  },
  "bufferViews": [
    {
      "buffer": 0,
      "byteLength": 19224,
      "name": "floatBufferViews",
      "target": 34963
    },
    {
      "buffer": 0,
      "byteLength": 14680,
      "byteOffset": 19224,
      "byteStride": 8,
      "name": "floatBufferViews",
      "target": 34962
    },
    {
      "buffer": 0,
      "byteLength": 44040,
      "byteOffset": 33904,
      "byteStride": 12,
      "name": "floatBufferViews",
      "target": 34962
    }
  ],
  "buffers": [
    {
      "byteLength": 77944,
      "uri": "scene.bin"
    }
  ],
  "materials": [
    {
      "doubleSided": true,
      "name": "Material.026",
      "pbrMetallicRoughness": {
        "baseColorFactor": [
          0.3843744993209839,
          0.3843744993209839,
          0.3843744993209839,
          1.0
        ],
        "metallicFactor": 0.0,
        "roughnessFactor": 0.6
      }
    },
    {
      "doubleSided": true,
      "name": "Material.050",
      "pbrMetallicRoughness": {
        "baseColorFactor": [
          0.8000000715255737,
          0.06257808208465576,
          0.07351763546466827,
          1.0
        ],
        "metallicFactor": 0.0,
        "roughnessFactor": 0.6
      }
    },
    {
      "doubleSided": true,
      "name": "Material.044",
      "pbrMetallicRoughness": {
        "baseColorFactor": [
          0.5490000247955322,
          0.22499999403953552,
          0.0949999988079071,
          1.0
        ],
        "metallicFactor": 0.0,
        "roughnessFactor": 0.6
      }
    },
    {
      "doubleSided": true,
      "name": "Material.052",
      "pbrMetallicRoughness": {
        "baseColorFactor": [
          0.5490000247955322,
          0.22499999403953552,
          0.0949999988079071,
          1.0
        ],
        "metallicFactor": 0.0,
        "roughnessFactor": 0.6
      }
    },
    {
      "doubleSided": true,
      "name": "Material.053",
      "pbrMetallicRoughness": {
        "baseColorFactor": [
          0.5490000247955322,
          0.22499999403953552,
          0.0949999988079071,
          1.0
        ],
        "metallicFactor": 0.0,
        "roughnessFactor": 0.6
      }
    },
    {
      "doubleSided": true,
      "name": "Material.054",
      "pbrMetallicRoughness": {
        "baseColorFactor": [
          0.5490000247955322,
          0.22499999403953552,
          0.0949999988079071,
          1.0
        ],
        "metallicFactor": 0.0,
        "roughnessFactor": 0.6
      }
    },
    {
      "doubleSided": true,
      "name": "Material.055",
      "pbrMetallicRoughness": {
        "baseColorFactor": [
          0.5490000247955322,
          0.22499999403953552,
          0.0949999988079071,
          1.0
        ],
        "metallicFactor": 0.0,
        "roughnessFactor": 0.6
      }
    },
    {
      "doubleSided": true,
      "name": "Material.056",
      "pbrMetallicRoughness": {
        "baseColorFactor": [
          0.5490000247955322,
          0.22499999403953552,
          0.0949999988079071,
          1.0
        ],
        "metallicFactor": 0.0,
        "roughnessFactor": 0.6
      }
    },
    {
      "doubleSided": true,
      "name": "Material.057",
      "pbrMetallicRoughness": {
        "baseColorFactor": [
          0.5490000247955322,
          0.22499999403953552,
          0.0949999988079071,
          1.0
        ],
        "metallicFactor": 0.0,
        "roughnessFactor": 0.6
      }
    }
  ],
  "meshes": [
    {
      "name": "Plane_0",
      "primitives": [
        {
          "attributes": {
            "NORMAL": 1,
            "POSITION": 0,
            "TEXCOORD_0": 2
          },
          "indices": 3,
          "material": 0,
          "mode": 4
        }
      ]
    },
    {
      "name": "Plane_1",
      "primitives": [
        {
          "attributes": {
            "NORMAL": 5,
            "POSITION": 4,
            "TEXCOORD_0": 6
          },
          "indices": 7,
          "material": 1,
          "mode": 4
        }
      ]
    },
    {
      "name": "Plane_2",
      "primitives": [
        {
          "attributes": {
            "NORMAL": 9,
            "POSITION": 8,
            "TEXCOORD_0": 10
          },
          "indices": 11,
          "material": 2,
          "mode": 4
        }
      ]
    },
    {
      "name": "Plane_3",
      "primitives": [
        {
          "attributes": {
            "NORMAL": 13,
            "POSITION": 12,
            "TEXCOORD_0": 14
          },
          "indices": 15,
          "material": 3,
          "mode": 4
        }
      ]
    },
    {
      "name": "Plane_4",
      "primitives": [
        {
          "attributes": {
            "NORMAL": 17,
            "POSITION": 16,
            "TEXCOORD_0": 18
          },
          "indices": 19,
          "material": 4,
          "mode": 4
        }
      ]
    },
    {
      "name": "Plane_5",
      "primitives": [
        {
          "attributes": {
            "NORMAL": 21,
            "POSITION": 20,
            "TEXCOORD_0": 22
          },
          "indices": 23,
          "material": 5,
          "mode": 4
        }
      ]
    },
    {
      "name": "Plane_6",
      "primitives": [
        {
          "attributes": {
            "NORMAL": 25,
            "POSITION": 24,
            "TEXCOORD_0": 26
          },
          "indices": 27,
          "material": 6,
          "mode": 4
        }
      ]
    },
    {
      "name": "Plane_7",
      "primitives": [
        {
          "attributes": {
            "NORMAL": 29,
            "POSITION": 28,
            "TEXCOORD_0": 30
          },
          "indices": 31,
          "material": 7,
          "mode": 4
        }
      ]
    },
    {
      "name": "Plane_8",
      "primitives": [
        {
          "attributes": {
            "NORMAL": 33,
            "POSITION": 32,
            "TEXCOORD_0": 34
          },
          "indices": 35,
          "material": 8,
          "mode": 4
        }
      ]
    }
  ],
  "nodes": [
    {
      "children": [
        1
      ],
      "matrix": [
        1.0,
        0.0,
        0.0,
        0.0,
        0.0,
        2.220446049250313e-16,
        -1.0,
        0.0,
        0.0,
        1.0,
        2.220446049250313e-16,
        0.0,
        0.0,
        0.0,
        0.0,
        1.0
      ],
      "name": "Sketchfab_model"
    },
    {
      "children": [
        2
      ],
      "name": "Root"
    },
    {
      "children": [
        3,
        4,
        5,
        6,
        7,
        8,
        9,
        10,
        11
      ],
      "matrix": [
        3.61787,
        0.0,
        0.0,
        0.0,
        0.0,
        3.61787,
        0.0,
        0.0,
        0.0,
        0.0,
        3.61787,
        0.0,
        -0.03674,
        0.0,
        0.002650000000000001,
        1.0
      ],
      "name": "Plane"
    },
    {
      "mesh": 0,
      "name": "Plane_0"
    },
    {
      "mesh": 1,
      "name": "Plane_1"
    },
    {
      "mesh": 2,
      "name": "Plane_2"
    },
    {
      "mesh": 3,
      "name": "Plane_3"
    },
    {
      "mesh": 4,
      "name": "Plane_4"
    },
    {
      "mesh": 5,
      "name": "Plane_5"
    },
    {
      "mesh": 6,
      "name": "Plane_6"
    },
    {
      "mesh": 7,
      "name": "Plane_7"
    },
    {
      "mesh": 8,
      "name": "Plane_8"
    }
  ],
  "scene": 0,
  "scenes": [
    {
      "name": "Sketchfab_Scene",
      "nodes": [
        0
      ]
    }
  ]
}
